<?xml version="1.0" encoding="UTF-8"?>
<!DOCTYPE svg PUBLIC "-//W3C//DTD SVG 1.1//EN" "http://www.w3.org/Graphics/SVG/1.1/DTD/svg11.dtd">
<!-- Creator: CorelDRAW 2017 -->
<svg xmlns="http://www.w3.org/2000/svg" xml:space="preserve" width="20mm" height="20mm" version="1.1" style="shape-rendering:geometricPrecision; text-rendering:geometricPrecision; image-rendering:optimizeQuality; fill-rule:evenodd; clip-rule:evenodd"
viewBox="0 0 2000 2000"
 xmlns:xlink="http://www.w3.org/1999/xlink">
 <defs>
  <style type="text/css">
   <![CDATA[
    .fil0 {fill:none}
    .fil1 {fill:#000096}
   ]]>
  </style>
 </defs>
 <g id="Layer_x0020_1">
  <metadata id="CorelCorpID_0Corel-Layer"/>
  <rect class="fil0" width="2000" height="2000"/>
  <g id="_1881355261664">
   <path id="Path_389" class="fil1" d="M1479.04 789.06c118.65,0 21.36,69.45 119.02,136.9 86.33,59.63 209.1,-3.71 209.1,46.84 0,82.1 4.18,72.95 -91.9,72.15 -66.86,-0.56 -129.65,6.03 -159.71,76.45 -39.93,93.31 62.12,81.09 -227.36,81.09 -37.96,0 -37.96,-91.88 0,-91.88l104.99 0 0 -65.62c-143.6,0 -131.24,13.51 -131.24,-72.18 0,-31.85 47.75,-19.69 131.24,-19.69l0 -65.62c-143.6,0 -131.24,13.5 -131.24,-72.19 0,-35.28 62.09,-26.25 98.43,-26.25 -5.05,-7.89 -10.77,-15.37 -17.05,-22.31 -30.07,-34.21 -141.81,-90.59 -191.76,-123.22 -60.62,-39.59 -150.43,-110.82 -184.93,-176 -48.28,35.29 -11.83,67.79 -298.14,239.96 -52.44,31.57 -71.01,35.08 -102.14,81.58 97.71,0 111.97,5.57 91.88,91.87 -48.44,11.3 -66.86,6.56 -124.69,6.56l-0.01 65.67c133.03,0 131.24,-11.41 131.24,52.5 0,53.04 -31.66,39.37 -131.24,39.37l0 65.61c133.03,0 131.24,-11.41 131.24,52.5 0,20.15 -6.07,39.37 -26.25,39.37 -280.85,0 -191.8,12.8 -229.43,-79.02 -60.64,-148.03 -256.28,-19.64 -256.28,-117.85 0,-70.92 15.87,-49.89 105.22,-52.27 1.81,0.01 3.67,0.06 5.47,0.06 34.91,0 69.3,-9.03 99.68,-26.19 103.11,-71.97 -0.89,-138.17 124.33,-138.17 7.86,-16.38 10.35,-24.62 19.11,-39.95 46.58,-81.39 201.8,-132.85 294.02,-211.28 14.97,-12.74 19.03,-19.06 34.71,-30.92 107.43,-81.3 91.83,-189.42 91.83,-295.28 108.81,-72.85 58.24,96.16 76,166.81 21.89,87.04 97.18,139.17 161.23,186.58 42.58,30.19 87.41,58.41 133.12,83.51 53.56,32.41 84.61,44.91 116.77,93.23 3.25,4.86 10.29,15.65 12.71,20.09 5.57,10.26 7.33,17.55 12.03,27.36l0 -0.17z" data-name="Path 389"/>
   <path id="Path_390" class="fil1" d="M1013.11 1806.2c-128.14,0 69.66,-161.42 -175.29,-343.13 -47.57,-36.52 -98.16,-69.8 -150.57,-98.86 -43.12,-23.43 -127.75,-69.71 -140.06,-115.86 107.27,0 82.7,-0.65 203.8,71.81 213.69,127.9 226.81,195.85 255.55,216.93 64.05,-121.05 225.47,-199.38 331.94,-265.23 52.91,-32.74 28.63,-23.51 120.86,-23.51 -23.74,88.9 -329.82,177.22 -404.96,343.15 -37.85,83.72 13.16,214.7 -41.27,214.7z" data-name="Path 390"/>
   <g id="_2765565813072">
    <path id="Path_391" class="fil1" d="M985.29 771.87l-2.01 -3.47c-4.9,-13.61 -7.44,-27.99 -7.44,-42.47 0,-3.32 0.14,-6.65 0.4,-9.95 0,-9.63 2.52,-14.38 2.52,-22.77l60.74 0c0,6.41 -1.26,6.89 -1.26,13.91 -0.4,4.74 -0.63,9.54 -0.63,14.31 0,15.45 2.2,30.83 6.46,45.66 1.86,5.57 3.34,12.5 7.91,14.86 17.24,4.84 33.11,13.72 46.27,25.85 17.35,16.22 30.68,36.29 38.89,58.58 8.23,22.75 12.47,46.81 12.47,71.01 0,18.12 -2.39,36.24 -7.05,53.73 -8.47,22.63 -71.42,25.2 -71.42,-5.58 0,-12.25 3.71,-24.29 3.71,-46.81 0.02,-0.32 0.02,-0.64 0.02,-0.95 0,-30.52 -12.64,-59.71 -34.88,-80.59 -19.01,-14.86 -43.64,-21.17 -61.64,-3.59 -5.57,4.32 -9.84,10.12 -12.31,16.72 -11.75,-3.3 -23.37,-7.43 -34.56,-12.28 -11.14,-4.37 -23.69,-8.19 -33.79,-13 5.87,-9.88 12.58,-19.32 19.95,-28.13 2.84,-2.64 5.49,-5.53 7.89,-8.56 -2.1,-3.68 -4.65,-7.09 -7.59,-10.13 -14.06,-18.01 -46.43,-62.65 -46.82,-82.26 9.73,-0.82 22.55,-4.67 32.59,-6.65l33.22 -7.27c1.56,3.27 2.34,6.06 4.18,9.73 12.04,21.75 26.45,42.35 42.73,61.15l1.45 -1.05z" data-name="Path 391"/>
    <path id="Path_392" class="fil1" d="M1234.4 1009.58c-0.65,13.35 -3.84,26.54 -9.37,38.72 -2.12,4.7 -7.91,11.57 -8.06,15.62 1.36,7.75 2.08,15.66 2.08,23.55 0,16.84 -3.21,33.57 -9.41,49.23 -3.33,8.15 -5.72,13.87 -9.38,20.98 -8.96,15.4 -19.7,29.77 -31.93,42.71 -13.69,11.48 -26.9,23.84 -39.14,36.82 -9.1,10.52 -18.99,20.72 -29.24,30.2l-15.19 15.17 -15.82 14.56c-15.32,15.68 -54.71,43.98 -77.51,43.98 -38.1,0 -55.87,-19.26 -77.74,-36.16 -11.41,-10.55 -21.73,-22.44 -30.57,-35.26 -32.83,-45.13 -60.06,-119.04 -34.24,-181.36 3.38,-8.14 0.91,-7.77 -3.71,-13.54 -41.64,-52 -16.2,-113.29 -8.14,-113.29l25.46 1.17c17.07,1.49 -9.01,11.54 -9.01,40.58 0,46.24 16.5,47.22 28.3,67.88 10.18,17.79 -11.84,20.74 -11.84,75.12 2.88,39.93 17.45,78.29 41.77,110.1 15.07,21.75 35.67,39.19 59.62,50.45 25.22,9.7 40.86,-4.92 60.95,-19.72 21.9,-16.16 80.08,-76.14 99.93,-96.24 12.18,-9.7 22.92,-21.16 31.83,-33.95 22.88,-33.11 34.27,-79.35 10.64,-115.44 -5.16,-7.89 -6.09,-7.31 -6.09,-16.71 0,-12.65 19.24,-17.33 26.82,-7.84l6.09 7.84 1.27 -21.5c-1.86,-21.6 -10.92,-41.98 -25.7,-57.83 -2.31,-3.6 -3.54,-7.79 -3.54,-12.06 0,-0.74 0.03,-1.49 0.11,-2.22 -0.26,-5.42 0.37,-10.72 -0.32,-16.14 -0.46,-3.58 -1.86,-11.49 -2.19,-15.52 13.02,8.12 24.47,18.55 33.78,30.75 18.44,22.4 28.83,50.35 29.5,79.34l-0.01 0.01z" data-name="Path 392"/>
    <path id="Path_393" class="fil1" d="M962.38 1156.38c-2.36,1.86 -1.51,-0.28 1.28,6.3l28.23 62.88c4.68,9.46 10.98,16.36 10.98,25.72 0,3.71 -6.32,8.86 -10.12,8.86 -11.61,0 -25.17,-37.33 -29.94,-47.27l-9.29 -17.28c-0.18,7.88 -2.52,11.45 -2.52,25.31 0,15.28 5.8,25.31 -11.39,25.31 -16.41,0 -8.3,-44.71 -6.07,-54.18 3.21,-10.03 4.86,-20.52 4.86,-31.06 0,-1.12 -0.02,-2.25 -0.05,-3.35 -0.91,-8.11 -2.67,-16.15 -5.19,-23.92 -2.66,-10.9 -4.05,-22.15 -4.05,-33.4 0,-3.23 0.12,-6.52 0.35,-9.75 0,-7.01 1.26,-7.42 1.26,-13.91 -3.87,2.73 -8.14,4.87 -12.65,6.33 -5.81,0 -19.03,-10.36 -1.54,-21.79 4.64,-3.02 8.54,-5.7 13,-8.6 8.52,-5.57 18.37,-9.67 26.59,-15.17 0,-8.6 -3.71,-32.7 -3.71,-54.41 0,-6.36 1.15,-5.67 1.26,-11.39l-21.93 -12.25c-7.95,-3.98 -15.42,-7.28 -23.63,-10.55 -22.57,-7.73 -46.32,-11.72 -70.21,-11.72 -20.53,0 -40.98,2.93 -60.67,8.69 -5.18,1.86 -10.54,3.32 -15.94,4.32 -5.9,0 -22.06,-15.23 3.94,-22.64 23.29,-7.89 47.8,-11.96 72.42,-11.96 42.39,0 84,12.03 119.87,34.55 5.11,2.7 9.9,5.99 14.25,9.79 5.58,5.95 2.14,11.46 2.14,20.65l1.3 36.68c1.6,19.37 7.42,25.28 -9.81,39.62 -10.17,11.57 -15.79,26.48 -15.79,41.91 0,1.93 0.1,3.9 0.28,5.82 0,28.92 60,60.25 86.23,69.44 20.67,7.22 7.76,21.67 1.09,21.67 -27.35,-7.89 -52.82,-21.26 -74.84,-39.25l0.01 0z" data-name="Path 393"/>
    <path id="Path_394" class="fil1" d="M974.97 896.95c2.69,-6.26 6.12,-12.23 10.13,-17.72 3.57,-7.2 10.92,-11.76 18.95,-11.76 4.54,0 8.96,1.47 12.6,4.16 -2.65,3.98 -6.18,7.54 -9.28,12.15l-16.72 27.5c-10.62,23.47 -16.99,4.01 -67,-13.58 -24.54,-8.15 -50.39,-12.37 -76.29,-12.37 -17.01,0 -34.02,1.8 -50.64,5.36l-40.6 10.03c-4.73,0 -24.84,-14.86 7.84,-23.81 26.35,-8.45 53.97,-12.79 81.68,-12.79 24.49,0 48.9,3.39 72.44,10.01 19.26,6.5 38.47,14.25 56.92,22.77l-0.03 0.05z" data-name="Path 394"/>
    <path id="Path_395" class="fil1" d="M1048.36 1015.97l17.66 0c5.98,0.68 11.91,1.99 17.64,3.85 10.79,4.87 6.39,22.83 -8.95,19.19 -20.26,-4.78 -28.89,-1.23 -37.3,-4.59 -19.84,-7.88 -16.9,-26.89 -16.9,-45.13 0.16,-15.77 2.28,-31.53 6.29,-46.83 4.28,-12.91 9.41,-25.65 15.21,-37.95l8.06 27.52c-0.58,9.18 -2.44,18.27 -5.45,26.95 -1.91,11.49 -2.91,23.17 -2.91,34.83 0,3.56 0.11,7.15 0.28,10.68 0.13,6.86 -0.34,11.48 6.37,11.48z" data-name="Path 395"/>
    <path id="Path_396" class="fil1" d="M1183.77 784.32c0,17.08 -33.59,10.25 -54.41,20.24l-16.71 -17.43c20.27,-6.14 41.27,-10.56 62.32,-13.03 4.85,1.09 8.44,5.24 8.8,10.22z" data-name="Path 396"/>
    <path id="Path_397" class="fil1" d="M1211.62 831.14c0,11.4 -23.4,12.79 -39,16.71 -5.04,1.55 -10.23,2.74 -15.43,3.55 -1.68,-7.19 -6.99,-11.55 -7.6,-18.98 17.75,-4.14 62.03,-21.96 62.03,-1.28z" data-name="Path 397"/>
   </g>
  </g>
 </g>
</svg>
